<svg width="34" height="34" viewBox="0 0 34 34" fill="none" xmlns="http://www.w3.org/2000/svg">
<path d="M23.0718 30.3572L32.7861 32.7858L30.3576 25.5001V3.64293C30.3576 2.99883 30.1017 2.38111 29.6462 1.92567C29.1908 1.47022 28.5731 1.21436 27.929 1.21436H3.64328C2.99918 1.21436 2.38146 1.47022 1.92602 1.92567C1.47057 2.38111 1.2147 2.99883 1.2147 3.64293V27.9286C1.2147 28.5727 1.47057 29.1905 1.92602 29.6459C2.38146 30.1013 2.99918 30.3572 3.64328 30.3572H23.0718Z" stroke="#003145" stroke-width="2.42857" stroke-linecap="round" stroke-linejoin="round"/>
<path d="M15.7861 7.28564V14.5714" stroke="#003145" stroke-width="2.42857" stroke-linecap="round" stroke-linejoin="round"/>
<path d="M15.7857 23.0716C15.1151 23.0716 14.5714 22.528 14.5714 21.8574C14.5714 21.1867 15.1151 20.6431 15.7857 20.6431C16.4563 20.6431 17 21.1867 17 21.8574C17 22.528 16.4563 23.0716 15.7857 23.0716Z" stroke="#003145" stroke-width="2.42857" stroke-linecap="round" stroke-linejoin="round"/>
</svg>
