<svg width="21" height="20" viewBox="0 0 21 20" fill="none" xmlns="http://www.w3.org/2000/svg">
<path d="M18.5933 7.44583L17.6182 7.28043C17.5314 7.03873 17.4333 6.80161 17.3249 6.57104L17.8991 5.76752C18.3986 5.06546 18.3184 4.11728 17.7102 3.51486L16.5385 2.34268C16.2073 2.01141 15.7683 1.82892 15.3024 1.82892C14.9355 1.82892 14.5846 1.94199 14.2902 2.15393L13.4838 2.72842C13.2344 2.61047 12.9813 2.50626 12.7266 2.41623L12.5653 1.46057C12.4235 0.614166 11.6976 0 10.8394 0H9.18395C8.32587 0 7.60004 0.614166 7.45848 1.45889L7.289 2.45193C7.04965 2.53937 6.81366 2.6387 6.58254 2.74963L5.79082 2.17926C5.49396 1.96548 5.14172 1.85257 4.7721 1.85257C4.30164 1.85257 3.86245 2.03537 3.53493 2.3674L2.36046 3.53836C1.75392 4.14505 1.67445 5.09247 2.1716 5.79102L2.7551 6.61102C2.64755 6.8425 2.55084 7.08069 2.46541 7.32376L1.50985 7.48505C0.663813 7.62711 0.0498047 8.35312 0.0498047 9.21143V10.8673C0.0498047 11.7256 0.663813 12.4516 1.50832 12.5934L2.50111 12.7628C2.58852 13.0023 2.68798 13.2385 2.79873 13.4695L2.23064 14.2599C1.73104 14.962 1.81128 15.9103 2.41949 16.5126L3.59122 17.6848C3.9224 18.0161 4.36144 18.1985 4.82732 18.1985C5.1942 18.1985 5.54506 18.0855 5.83933 17.8737L6.65912 17.29C6.87452 17.3901 7.09785 17.4818 7.32713 17.5644L7.4896 18.5396C7.63162 19.3858 8.35745 20 9.21553 20H10.8748C11.7329 20 12.4589 19.3858 12.6006 18.5406L12.7659 17.5652C13.0076 17.4783 13.2446 17.3802 13.4751 17.2717L14.2759 17.8442C14.5727 18.058 14.925 18.1711 15.2946 18.1711C15.7603 18.1711 16.1994 17.9886 16.5305 17.6573L17.7023 16.4851C18.309 15.8784 18.3883 14.931 17.8911 14.2325L17.3163 13.4251C17.4277 13.1892 17.5261 12.9523 17.6107 12.7167L18.5845 12.5543C19.4305 12.4123 20.0445 11.6862 20.0445 10.8279V9.17542C20.0541 8.31619 19.4445 7.58926 18.5933 7.44583ZM18.8729 10.8279C18.8729 11.1116 18.67 11.3516 18.3912 11.3985L17.0997 11.6138C16.8614 11.6534 16.6692 11.8216 16.5977 12.0528C16.4829 12.4246 16.3254 12.8047 16.1296 13.1819C16.0189 13.3946 16.0366 13.6481 16.1757 13.8431L16.9368 14.9121C17.1009 15.1428 17.0745 15.4559 16.8739 15.6566L15.7022 16.8286C15.5907 16.9402 15.4497 16.9992 15.2946 16.9992C15.1722 16.9992 15.0568 16.9626 14.9588 16.8921L13.8947 16.1313C13.6989 15.9908 13.4445 15.9731 13.2308 16.0849C12.8729 16.2723 12.4926 16.4299 12.1004 16.553C11.8716 16.6248 11.7045 16.8164 11.6647 17.0523L11.4453 18.3455C11.3985 18.6252 11.1585 18.8281 10.8748 18.8281H9.21553C8.93179 18.8281 8.69199 18.6252 8.64515 18.3463L8.42991 17.0544C8.39055 16.8176 8.22397 16.6257 7.99514 16.5533C7.60859 16.4313 7.24049 16.2799 6.90076 16.1034C6.80816 16.0553 6.70794 16.0316 6.60817 16.0316C6.47912 16.0316 6.35067 16.0713 6.24068 16.1496L5.15744 16.9208C5.0598 16.9911 4.94875 17.0267 4.82732 17.0267C4.67218 17.0267 4.53122 16.9678 4.41971 16.8561L3.24585 15.6821C3.04555 15.4837 3.02008 15.1715 3.18346 14.9419L3.93995 13.8893C4.08227 13.6917 4.09966 13.4354 3.98495 13.2198C3.79258 12.8589 3.63317 12.4805 3.51098 12.0949C3.43867 11.8675 3.24783 11.7014 3.01291 11.6612L1.70374 11.438C1.42427 11.391 1.22138 11.151 1.22138 10.8673V9.21143C1.22138 8.92776 1.42427 8.68774 1.70419 8.64075L2.9798 8.42545C3.21824 8.38531 3.4103 8.21671 3.48123 7.98477C3.60159 7.59079 3.75643 7.20978 3.94147 6.85272C4.05161 6.64047 4.03392 6.38763 3.89525 6.19247L3.1261 5.11154C2.9618 4.88083 2.98819 4.56772 3.18819 4.36768L4.36388 3.19565L4.36815 3.19122C4.47387 3.08365 4.61726 3.02444 4.7721 3.02444C4.89444 3.02444 5.01007 3.06107 5.10618 3.13034L6.16304 3.8913C6.36089 4.03381 6.61748 4.0509 6.83227 3.93616C7.19304 3.74374 7.57136 3.58429 7.9564 3.46222C8.18369 3.39005 8.34982 3.19946 8.39024 2.96387L8.61358 1.65436C8.66041 1.37482 8.90037 1.17188 9.18411 1.17188H10.8396C11.1232 1.17188 11.3631 1.37482 11.4101 1.65482L11.6253 2.93121C11.6656 3.16986 11.8345 3.36182 12.0665 3.43262C12.4621 3.55286 12.8566 3.71521 13.2393 3.91541C13.452 4.02649 13.7053 4.00909 13.9012 3.86978L14.9724 3.10669C15.0699 3.03635 15.1809 3.00079 15.3025 3.00079C15.4575 3.00079 15.5985 3.05969 15.7101 3.17139L16.8838 4.3454C17.0841 4.54376 17.1098 4.85596 16.9453 5.08682L16.184 6.15234C16.0442 6.34827 16.0268 6.60248 16.1383 6.81549C16.3258 7.17346 16.4832 7.55386 16.6065 7.94632C16.6784 8.1752 16.8698 8.34213 17.1056 8.38196L18.3974 8.60123L18.3985 8.60138C18.6772 8.64822 18.8769 8.88474 18.8729 9.16382V10.8279Z" fill="#74788D"/>
</svg>
