<svg width="36" height="30" viewBox="0 0 36 30" fill="none" xmlns="http://www.w3.org/2000/svg">
<g opacity="0.4">
<path d="M27.6938 7.3069C27.4381 7.27092 27.3468 7.18696 27.2786 6.94708C26.1826 3.09794 22.758 0.324286 18.7509 0.0264307C14.2854 -0.304409 10.1679 2.50023 8.86129 6.77816C8.76101 7.106 8.64769 7.25992 8.25861 7.3159C3.07716 8.06653 -0.493798 12.6743 0.0557345 17.8628C0.464875 21.7209 3.26368 25.0003 6.99709 26.0398C8.35989 26.4196 9.74375 26.4146 11.1336 26.3996C11.7854 26.3996 12.4373 26.4006 13.0891 26.3996C13.8833 26.3976 14.4318 25.9069 14.4328 25.2012C14.4328 24.4956 13.8843 24.0028 13.0901 24.0018C11.8747 23.9998 10.6583 24.0128 9.44291 23.9968C5.82883 23.9488 2.74022 21.0992 2.40829 17.518C2.0152 13.275 5.27027 9.66976 9.55021 9.60779C10.3404 9.59679 10.7686 9.23397 10.916 8.45335C11.9659 2.89204 18.3437 0.518192 22.6618 4.09046C23.9895 5.18893 24.8098 6.60324 25.1206 8.30142C25.2901 9.22497 25.7143 9.58979 26.6459 9.61278C26.8956 9.61878 27.1453 9.64677 27.394 9.67575C31.5786 10.1635 34.4867 14.3295 33.5 18.4215C32.7008 21.7389 29.8458 23.9888 26.4152 24.0008C25.2249 24.0048 24.0336 23.9938 22.8433 24.0048C22.1834 24.0108 21.671 24.5246 21.653 25.1632C21.6339 25.7989 22.1293 26.3896 22.7701 26.3896C24.3104 26.3896 25.8547 26.4866 27.391 26.3357C32.6847 25.8169 36.5846 20.9353 35.9278 15.6668C35.3883 11.326 32.0319 7.91161 27.6938 7.3069Z" fill="black"/>
<path d="M19.2429 14.1846C19.2429 14.0517 19.2429 13.9177 19.2429 13.6969C20.5766 15.0282 21.8411 16.2926 23.1096 17.554C23.6622 18.1037 24.3762 18.1377 24.8806 17.6479C25.395 17.1482 25.3679 16.4195 24.8044 15.8558C22.866 13.9197 20.9256 11.9857 18.9841 10.0536C18.3795 9.45192 17.7056 9.44992 17.1079 10.0456C15.1575 11.9867 13.208 13.9297 11.2606 15.8738C10.7151 16.4185 10.691 17.1422 11.1914 17.6379C11.6918 18.1347 12.4118 18.1087 12.9623 17.563C14.1527 16.3826 15.339 15.1991 16.5233 14.0127C16.6075 13.9277 16.6647 13.8158 16.7339 13.7158C16.768 13.7378 16.8031 13.7588 16.8372 13.7808C16.8372 13.9118 16.8372 14.0437 16.8372 14.1746C16.8372 18.9573 16.8372 23.741 16.8372 28.5237C16.8372 28.6356 16.8331 28.7486 16.8392 28.8605C16.8712 29.4002 17.2603 29.852 17.7938 29.974C18.2752 30.0829 18.8217 29.842 19.0804 29.4022C19.2248 29.1574 19.2469 28.8875 19.2469 28.6076C19.2419 23.801 19.2429 18.9923 19.2429 14.1846Z" fill="black"/>
</g>
</svg>
