<svg width="20" height="20" viewBox="0 0 20 20" fill="none" xmlns="http://www.w3.org/2000/svg">
<g clip-path="url(#clip0_274_657)">
<path d="M5 19.2856H15" stroke="#74788D" stroke-width="1.42857" stroke-linecap="round" stroke-linejoin="round"/>
<path d="M1.42913 6.42864C1.23969 6.42864 1.05801 6.35339 0.924053 6.21943C0.790099 6.08548 0.714844 5.9038 0.714844 5.71436V1.42864C0.714844 1.2392 0.790099 1.05752 0.924053 0.923565C1.05801 0.78961 1.23969 0.714355 1.42913 0.714355H18.572C18.7614 0.714355 18.9431 0.78961 19.0771 0.923565C19.211 1.05752 19.2863 1.2392 19.2863 1.42864V5.71436C19.2863 5.9038 19.211 6.08548 19.0771 6.21943C18.9431 6.35339 18.7614 6.42864 18.572 6.42864" stroke="#74788D" stroke-width="1.42857" stroke-linecap="round" stroke-linejoin="round"/>
<path d="M14.2857 4.28564H5.71429C5.3198 4.28564 5 4.60544 5 4.99993V14.9999C5 15.3944 5.3198 15.7142 5.71429 15.7142H14.2857C14.6802 15.7142 15 15.3944 15 14.9999V4.99993C15 4.60544 14.6802 4.28564 14.2857 4.28564Z" stroke="#74788D" stroke-width="1.42857" stroke-linecap="round" stroke-linejoin="round"/>
<path d="M10.0022 12.1431C11.1857 12.1431 12.1451 11.1837 12.1451 10.0003C12.1451 8.81681 11.1857 7.85742 10.0022 7.85742C8.81876 7.85742 7.85938 8.81681 7.85938 10.0003C7.85938 11.1837 8.81876 12.1431 10.0022 12.1431Z" stroke="#74788D" stroke-width="1.42857" stroke-linecap="round" stroke-linejoin="round"/>
</g>
<defs>
<clipPath id="clip0_274_657">
<rect width="20" height="20" fill="white"/>
</clipPath>
</defs>
</svg>
