<svg width="17" height="19" viewBox="0 0 17 19" fill="none" xmlns="http://www.w3.org/2000/svg">
<path d="M3.95105 18.514C5.46346 18.514 6.26636 17.1629 6.50247 16.3648C6.50624 16.3522 6.50974 16.3393 6.51299 16.3262C7.06315 14.0469 7.93956 10.4344 8.58881 7.80669H10.9118C11.3486 7.80669 11.7027 7.45255 11.7027 7.01553C11.7027 6.57852 11.3486 6.22438 10.9118 6.22438H8.98195C9.18975 5.39647 9.34183 4.8068 9.40171 4.60557L9.4682 4.38031C9.71341 3.5433 10.2876 1.58269 11.1756 1.58269C11.999 1.58269 12.1217 2.85114 12.1273 2.91245C12.1624 3.34674 12.5411 3.67477 12.9763 3.63722C13.4119 3.60397 13.7379 3.2232 13.7043 2.78774C13.6304 1.82342 13.006 0 11.1753 0C9.10234 0 8.32412 2.6577 7.95021 3.93524L7.88657 4.15076C7.81059 4.40356 7.61123 5.1825 7.35122 6.22438H4.5838C4.1469 6.22438 3.79286 6.57852 3.79286 7.01553C3.79286 7.45255 4.1469 7.80669 4.5838 7.80669H6.95938C6.14726 11.1015 5.09773 15.4474 4.98227 15.9258C4.93915 16.0512 4.61485 16.9316 3.95144 16.9316C2.9384 16.9316 2.49981 15.5093 2.4963 15.4987C2.37473 15.0792 1.93718 14.8364 1.51651 14.9588C1.09701 15.0805 0.855178 15.5192 0.976742 15.9389C1.25351 16.8952 2.19109 18.514 3.95105 18.514Z" fill="#74788D"/>
<path d="M15.6818 16.4739C16.1479 16.4739 16.5396 16.1427 16.5396 15.6156C16.5396 15.3707 16.4417 15.1497 16.2332 14.9044L14.5908 13.0163L16.1845 11.1526C16.3315 10.9687 16.4417 10.7725 16.4417 10.515C16.4417 10.0487 16.0615 9.70557 15.5711 9.70557C15.2403 9.70557 14.9832 9.91394 14.7621 10.1842L13.5243 11.8021L12.3108 10.1839C12.0654 9.8777 11.8083 9.70557 11.4407 9.70557C10.9744 9.70557 10.5826 10.037 10.5826 10.5641C10.5826 10.809 10.6807 11.03 10.8887 11.2749L12.4211 13.0406L10.7415 15.0268C10.5822 15.2108 10.4844 15.4069 10.4844 15.6644C10.4844 16.1307 10.8644 16.4736 11.3544 16.4736C11.6855 16.4736 11.9428 16.2652 12.1634 15.9953L13.4869 14.2545L14.8107 15.9953C15.0567 16.3023 15.3141 16.4739 15.6818 16.4739Z" fill="#74788D"/>
</svg>
